<svg xmlns="http://www.w3.org/2000/svg" width="1046" height="292" viewBox="0 0 1046 292">
<rect class="svg-document__background" x="0" y="0" width="1046" height="292" fill="#fffdfc"/>
<text x="46" y="40" fill="#102a43" font-size="26.0" font-family="'IBM Plex Sans', 'Helvetica Neue', sans-serif" font-weight="600" text-anchor="start">Operations per window</text>
<text x="46" y="64" fill="#52606d" font-size="12.0" font-family="'IBM Plex Sans', 'Helvetica Neue', sans-serif" font-weight="400" text-anchor="start">Windows 0-2 of 2</text>
<rect x="794" y="24" width="228" height="52" fill="#ffffff" stroke="#d8deea" stroke-width="0.9" rx="10" opacity="0.96"/>
<rect x="806" y="34" width="16" height="10" fill="#f8fbff" stroke="#6b7a90" stroke-width="0.9" rx="3" opacity="1"/>
<text x="830" y="42" fill="#102a43" font-size="10.0" font-family="'IBM Plex Sans', 'Helvetica Neue', sans-serif" font-weight="400" text-anchor="start">Local op</text>
<rect x="912" y="34" width="16" height="10" fill="#faedff" stroke="#d702fe" stroke-width="0.9" rx="3" opacity="1"/>
<text x="936" y="42" fill="#102a43" font-size="10.0" font-family="'IBM Plex Sans', 'Helvetica Neue', sans-serif" font-weight="400" text-anchor="start">Remote op</text>
<rect x="806" y="54" width="16" height="10" fill="#e6fffa" stroke="#0f766e" stroke-width="0.9" rx="3" opacity="1"/>
<text x="830" y="62" fill="#102a43" font-size="10.0" font-family="'IBM Plex Sans', 'Helvetica Neue', sans-serif" font-weight="400" text-anchor="start">Measure</text>
<rect x="912" y="54" width="16" height="10" fill="#fff4db" stroke="#b7791f" stroke-width="0.9" rx="3" opacity="1"/>
<text x="936" y="62" fill="#102a43" font-size="10.0" font-family="'IBM Plex Sans', 'Helvetica Neue', sans-serif" font-weight="400" text-anchor="start">Swap</text>
<rect x="142" y="92" width="432" height="148" fill="#f8f5ff" stroke="none" rx="10" opacity="0.58"/>
<rect x="582" y="92" width="256" height="148" fill="#f8f5ff" stroke="none" rx="10" opacity="0.58"/>
<rect x="846" y="92" width="168" height="148" fill="#f8f5ff" stroke="none" rx="10" opacity="0.58"/>
<text x="44" y="138" fill="#102a43" font-size="13.0" font-family="'IBM Plex Sans', 'Helvetica Neue', sans-serif" font-weight="600" text-anchor="start">QPU 0</text>
<text x="44" y="214" fill="#102a43" font-size="13.0" font-family="'IBM Plex Sans', 'Helvetica Neue', sans-serif" font-weight="600" text-anchor="start">QPU 1</text>
<text x="110" y="123" fill="#52606d" font-size="11.0" font-family="'IBM Plex Sans', 'Helvetica Neue', sans-serif" font-weight="400" text-anchor="end">0</text>
<text x="110" y="153" fill="#52606d" font-size="11.0" font-family="'IBM Plex Sans', 'Helvetica Neue', sans-serif" font-weight="400" text-anchor="end">1</text>
<text x="110" y="199" fill="#52606d" font-size="11.0" font-family="'IBM Plex Sans', 'Helvetica Neue', sans-serif" font-weight="400" text-anchor="end">0</text>
<text x="110" y="229" fill="#52606d" font-size="11.0" font-family="'IBM Plex Sans', 'Helvetica Neue', sans-serif" font-weight="400" text-anchor="end">1</text>
<line x1="56" y1="171" x2="1018" y2="171" stroke="#4801b0" stroke-width="1" opacity="0.42" dasharray="2.5 7.5" linecap="round"/>
<line x1="138" y1="118" x2="1018" y2="118" stroke="#d3dae6" stroke-width="0.9" opacity="1" linecap="round"/>
<line x1="138" y1="148" x2="1018" y2="148" stroke="#d3dae6" stroke-width="0.9" opacity="1" linecap="round"/>
<line x1="138" y1="194" x2="1018" y2="194" stroke="#d3dae6" stroke-width="0.9" opacity="1" linecap="round"/>
<line x1="138" y1="224" x2="1018" y2="224" stroke="#d3dae6" stroke-width="0.9" opacity="1" linecap="round"/>
<line x1="138" y1="104" x2="138" y2="236" stroke="#e3e8f3" stroke-width="1" opacity="1" linecap="round"/>
<text x="182" y="94" fill="#52606d" font-size="11.0" font-family="'IBM Plex Sans', 'Helvetica Neue', sans-serif" font-weight="400" text-anchor="middle">t0</text>
<line x1="226" y1="104" x2="226" y2="236" stroke="#e3e8f3" stroke-width="1" opacity="1" linecap="round"/>
<text x="270" y="94" fill="#52606d" font-size="11.0" font-family="'IBM Plex Sans', 'Helvetica Neue', sans-serif" font-weight="400" text-anchor="middle">t1</text>
<line x1="314" y1="104" x2="314" y2="236" stroke="#e3e8f3" stroke-width="1" opacity="1" linecap="round"/>
<text x="358" y="94" fill="#52606d" font-size="11.0" font-family="'IBM Plex Sans', 'Helvetica Neue', sans-serif" font-weight="400" text-anchor="middle">t2</text>
<line x1="402" y1="104" x2="402" y2="236" stroke="#e3e8f3" stroke-width="1" opacity="1" linecap="round"/>
<text x="446" y="94" fill="#52606d" font-size="11.0" font-family="'IBM Plex Sans', 'Helvetica Neue', sans-serif" font-weight="400" text-anchor="middle">t3</text>
<line x1="490" y1="104" x2="490" y2="236" stroke="#e3e8f3" stroke-width="1" opacity="1" linecap="round"/>
<text x="534" y="94" fill="#52606d" font-size="11.0" font-family="'IBM Plex Sans', 'Helvetica Neue', sans-serif" font-weight="400" text-anchor="middle">t4</text>
<line x1="578" y1="104" x2="578" y2="236" stroke="#e3e8f3" stroke-width="1" opacity="1" linecap="round"/>
<text x="622" y="94" fill="#52606d" font-size="11.0" font-family="'IBM Plex Sans', 'Helvetica Neue', sans-serif" font-weight="400" text-anchor="middle">t5</text>
<line x1="666" y1="104" x2="666" y2="236" stroke="#e3e8f3" stroke-width="1" opacity="1" linecap="round"/>
<text x="710" y="94" fill="#52606d" font-size="11.0" font-family="'IBM Plex Sans', 'Helvetica Neue', sans-serif" font-weight="400" text-anchor="middle">t6</text>
<line x1="754" y1="104" x2="754" y2="236" stroke="#e3e8f3" stroke-width="1" opacity="1" linecap="round"/>
<text x="798" y="94" fill="#52606d" font-size="11.0" font-family="'IBM Plex Sans', 'Helvetica Neue', sans-serif" font-weight="400" text-anchor="middle">t7</text>
<line x1="842" y1="104" x2="842" y2="236" stroke="#e3e8f3" stroke-width="1" opacity="1" linecap="round"/>
<text x="886" y="94" fill="#52606d" font-size="11.0" font-family="'IBM Plex Sans', 'Helvetica Neue', sans-serif" font-weight="400" text-anchor="middle">t8</text>
<line x1="930" y1="104" x2="930" y2="236" stroke="#e3e8f3" stroke-width="1" opacity="1" linecap="round"/>
<text x="974" y="94" fill="#52606d" font-size="11.0" font-family="'IBM Plex Sans', 'Helvetica Neue', sans-serif" font-weight="400" text-anchor="middle">t9</text>
<line x1="1018" y1="104" x2="1018" y2="236" stroke="#e3e8f3" stroke-width="1" opacity="1" linecap="round"/>
<line x1="138" y1="236" x2="1018" y2="236" stroke="#c9d3e3" stroke-width="1.1" opacity="1" linecap="round"/>
<text x="358" y="82" fill="#52606d" font-size="12.0" font-family="'IBM Plex Sans', 'Helvetica Neue', sans-serif" font-weight="600" text-anchor="middle">W0</text>
<text x="710" y="82" fill="#52606d" font-size="12.0" font-family="'IBM Plex Sans', 'Helvetica Neue', sans-serif" font-weight="600" text-anchor="middle">W1</text>
<text x="930" y="82" fill="#52606d" font-size="12.0" font-family="'IBM Plex Sans', 'Helvetica Neue', sans-serif" font-weight="600" text-anchor="middle">W2</text>
<rect x="148" y="185" width="68" height="18" fill="#f8fbff" stroke="#6b7a90" stroke-width="1" rx="5.5" opacity="1"/>
<text x="182" y="198" fill="#102a43" font-size="10.0" font-family="'IBM Plex Sans', 'Helvetica Neue', sans-serif" font-weight="600" text-anchor="middle">X</text>
<rect x="148" y="139" width="68" height="18" fill="#f8fbff" stroke="#6b7a90" stroke-width="1" rx="5.5" opacity="1"/>
<text x="182" y="152" fill="#102a43" font-size="10.0" font-family="'IBM Plex Sans', 'Helvetica Neue', sans-serif" font-weight="600" text-anchor="middle">X</text>
<rect x="236" y="185" width="68" height="18" fill="#f8fbff" stroke="#6b7a90" stroke-width="1" rx="5.5" opacity="1"/>
<text x="270" y="198" fill="#102a43" font-size="10.0" font-family="'IBM Plex Sans', 'Helvetica Neue', sans-serif" font-weight="600" text-anchor="middle">H</text>
<line x1="358" y1="118" x2="358" y2="194" stroke="#d702fe" stroke-width="1" opacity="1" dasharray="4 4" linecap="round"/>
<rect x="324" y="109" width="68" height="18" fill="#faedff" stroke="#d702fe" stroke-width="1" rx="5.5" opacity="1" dasharray="4 4"/>
<rect x="324" y="185" width="68" height="18" fill="#faedff" stroke="#d702fe" stroke-width="1" rx="5.5" opacity="1" dasharray="4 4"/>
<rect x="337" y="147" width="42" height="18" fill="#faedff" stroke="#d702fe" stroke-width="1" rx="5" opacity="1" dasharray="4 4"/>
<text x="358" y="160" fill="#102a43" font-size="10.0" font-family="'IBM Plex Sans', 'Helvetica Neue', sans-serif" font-weight="600" text-anchor="middle">RCP</text>
<rect x="412" y="109" width="68" height="18" fill="#f8fbff" stroke="#6b7a90" stroke-width="1" rx="5.5" opacity="1"/>
<text x="446" y="122" fill="#102a43" font-size="10.0" font-family="'IBM Plex Sans', 'Helvetica Neue', sans-serif" font-weight="600" text-anchor="middle">H</text>
<line x1="446" y1="148" x2="446" y2="194" stroke="#d702fe" stroke-width="1" opacity="1" dasharray="4 4" linecap="round"/>
<rect x="412" y="139" width="68" height="18" fill="#faedff" stroke="#d702fe" stroke-width="1" rx="5.5" opacity="1" dasharray="4 4"/>
<rect x="412" y="185" width="68" height="18" fill="#faedff" stroke="#d702fe" stroke-width="1" rx="5.5" opacity="1" dasharray="4 4"/>
<rect x="425" y="162" width="42" height="18" fill="#faedff" stroke="#d702fe" stroke-width="1" rx="5" opacity="1" dasharray="4 4"/>
<text x="446" y="175" fill="#102a43" font-size="10.0" font-family="'IBM Plex Sans', 'Helvetica Neue', sans-serif" font-weight="600" text-anchor="middle">RCP</text>
<line x1="534" y1="118" x2="534" y2="148" stroke="#6b7a90" stroke-width="1" opacity="1" linecap="round"/>
<rect x="500" y="139" width="68" height="18" fill="#f8fbff" stroke="#6b7a90" stroke-width="1" rx="5.5" opacity="1"/>
<rect x="500" y="109" width="68" height="18" fill="#f8fbff" stroke="#6b7a90" stroke-width="1" rx="5.5" opacity="1"/>
<rect x="513" y="124" width="42" height="18" fill="#f8fbff" stroke="#6b7a90" stroke-width="1" rx="5" opacity="1"/>
<text x="534" y="137" fill="#102a43" font-size="10.0" font-family="'IBM Plex Sans', 'Helvetica Neue', sans-serif" font-weight="600" text-anchor="middle">CP</text>
<rect x="588" y="139" width="68" height="18" fill="#f8fbff" stroke="#6b7a90" stroke-width="1" rx="5.5" opacity="1"/>
<text x="622" y="152" fill="#102a43" font-size="10.0" font-family="'IBM Plex Sans', 'Helvetica Neue', sans-serif" font-weight="600" text-anchor="middle">H</text>
<line x1="622" y1="194" x2="622" y2="224" stroke="#6b7a90" stroke-width="1" opacity="1" linecap="round"/>
<rect x="588" y="215" width="68" height="18" fill="#f8fbff" stroke="#6b7a90" stroke-width="1" rx="5.5" opacity="1"/>
<rect x="588" y="185" width="68" height="18" fill="#f8fbff" stroke="#6b7a90" stroke-width="1" rx="5.5" opacity="1"/>
<rect x="601" y="200" width="42" height="18" fill="#f8fbff" stroke="#6b7a90" stroke-width="1" rx="5" opacity="1"/>
<text x="622" y="213" fill="#102a43" font-size="10.0" font-family="'IBM Plex Sans', 'Helvetica Neue', sans-serif" font-weight="600" text-anchor="middle">CP</text>
<line x1="710" y1="118" x2="710" y2="224" stroke="#d702fe" stroke-width="1" opacity="1" dasharray="4 4" linecap="round"/>
<rect x="676" y="215" width="68" height="18" fill="#faedff" stroke="#d702fe" stroke-width="1" rx="5.5" opacity="1" dasharray="4 4"/>
<rect x="676" y="109" width="68" height="18" fill="#faedff" stroke="#d702fe" stroke-width="1" rx="5.5" opacity="1" dasharray="4 4"/>
<rect x="689" y="162" width="42" height="18" fill="#faedff" stroke="#d702fe" stroke-width="1" rx="5" opacity="1" dasharray="4 4"/>
<text x="710" y="175" fill="#102a43" font-size="10.0" font-family="'IBM Plex Sans', 'Helvetica Neue', sans-serif" font-weight="600" text-anchor="middle">RCP</text>
<line x1="798" y1="148" x2="798" y2="224" stroke="#d702fe" stroke-width="1" opacity="1" dasharray="4 4" linecap="round"/>
<rect x="764" y="215" width="68" height="18" fill="#faedff" stroke="#d702fe" stroke-width="1" rx="5.5" opacity="1" dasharray="4 4"/>
<rect x="764" y="139" width="68" height="18" fill="#faedff" stroke="#d702fe" stroke-width="1" rx="5.5" opacity="1" dasharray="4 4"/>
<rect x="777" y="177" width="42" height="18" fill="#faedff" stroke="#d702fe" stroke-width="1" rx="5" opacity="1" dasharray="4 4"/>
<text x="798" y="190" fill="#102a43" font-size="10.0" font-family="'IBM Plex Sans', 'Helvetica Neue', sans-serif" font-weight="600" text-anchor="middle">RCP</text>
<rect x="852" y="215" width="68" height="18" fill="#f8fbff" stroke="#6b7a90" stroke-width="1" rx="5.5" opacity="1"/>
<text x="886" y="228" fill="#102a43" font-size="10.0" font-family="'IBM Plex Sans', 'Helvetica Neue', sans-serif" font-weight="600" text-anchor="middle">H</text>
<rect x="852" y="185" width="68" height="18" fill="#e6fffa" stroke="#0f766e" stroke-width="1" rx="5.5" opacity="1"/>
<text x="886" y="198" fill="#102a43" font-size="10.0" font-family="'IBM Plex Sans', 'Helvetica Neue', sans-serif" font-weight="600" text-anchor="middle"><tspan>M</tspan><tspan baseline-shift="sub" font-size="7.5">z</tspan></text>
<rect x="852" y="109" width="68" height="18" fill="#e6fffa" stroke="#0f766e" stroke-width="1" rx="5.5" opacity="1"/>
<text x="886" y="122" fill="#102a43" font-size="10.0" font-family="'IBM Plex Sans', 'Helvetica Neue', sans-serif" font-weight="600" text-anchor="middle"><tspan>M</tspan><tspan baseline-shift="sub" font-size="7.5">z</tspan></text>
<rect x="852" y="139" width="68" height="18" fill="#e6fffa" stroke="#0f766e" stroke-width="1" rx="5.5" opacity="1"/>
<text x="886" y="152" fill="#102a43" font-size="10.0" font-family="'IBM Plex Sans', 'Helvetica Neue', sans-serif" font-weight="600" text-anchor="middle"><tspan>M</tspan><tspan baseline-shift="sub" font-size="7.5">z</tspan></text>
<rect x="940" y="215" width="68" height="18" fill="#e6fffa" stroke="#0f766e" stroke-width="1" rx="5.5" opacity="1"/>
<text x="974" y="228" fill="#102a43" font-size="10.0" font-family="'IBM Plex Sans', 'Helvetica Neue', sans-serif" font-weight="600" text-anchor="middle"><tspan>M</tspan><tspan baseline-shift="sub" font-size="7.5">z</tspan></text>
<text x="523" y="274" fill="#52606d" font-size="12.0" font-family="'IBM Plex Sans', 'Helvetica Neue', sans-serif" font-weight="400" text-anchor="middle">Time interval</text>
</svg>