<svg xmlns="http://www.w3.org/2000/svg" width="1406" height="440" viewBox="0 0 1406 440">
<rect x="0" y="0" width="1406" height="440" fill="#fffdfc"/>
<text x="597" y="40" fill="#102a43" font-size="26.0" font-family="'IBM Plex Sans', 'Helvetica Neue', sans-serif" font-weight="600" text-anchor="middle">Distributed Medium Simple 2 circuit</text>
<text x="597" y="64" fill="#52606d" font-size="12.0" font-family="'IBM Plex Sans', 'Helvetica Neue', sans-serif" font-weight="400" text-anchor="middle">Windows 0-5 of 5</text>
<rect x="1084" y="34" width="286" height="74" fill="#ffffff" stroke="#d8deea" stroke-width="0.9" rx="10" opacity="0.96"/>
<rect x="1098" y="45" width="20" height="12" fill="#f8fbff" stroke="#6b7a90" stroke-width="0.9" rx="3" opacity="1"/>
<text x="1126" y="55" fill="#102a43" font-size="11.0" font-family="'IBM Plex Sans', 'Helvetica Neue', sans-serif" font-weight="400" text-anchor="start">Local gate</text>
<rect x="1222" y="45" width="20" height="12" fill="#faedff" stroke="#d702fe" stroke-width="0.9" rx="3" opacity="1"/>
<text x="1250" y="55" fill="#102a43" font-size="11.0" font-family="'IBM Plex Sans', 'Helvetica Neue', sans-serif" font-weight="400" text-anchor="start">Remote gate</text>
<path d="M 1098.00 72.00 C 1108.00 68.00, 1118.00 78.00, 1130.00 71.00" fill="none" stroke="#4801b0" stroke-width="1.7" opacity="1" linecap="round" linejoin="round"/>
<circle cx="1098" cy="72" r="2.4" fill="#4801b0" stroke="none"/>
<circle cx="1130" cy="71" r="2.4" fill="#4801b0" stroke="none"/>
<text x="1140" y="75" fill="#102a43" font-size="11.0" font-family="'IBM Plex Sans', 'Helvetica Neue', sans-serif" font-weight="400" text-anchor="start">State teleportation</text>
<line x1="1254" y1="69.5" x2="1286" y2="69.5" stroke="#6b7a90" stroke-width="1" opacity="1" linecap="round"/>
<line x1="1254" y1="74.5" x2="1286" y2="74.5" stroke="#6b7a90" stroke-width="1" opacity="1" linecap="round"/>
<text x="1296" y="75" fill="#102a43" font-size="11.0" font-family="'IBM Plex Sans', 'Helvetica Neue', sans-serif" font-weight="400" text-anchor="start">Classical bit</text>
<rect x="128" y="116" width="104" height="268" fill="#f8f5ff" stroke="none" rx="10" opacity="0.58"/>
<rect x="290" y="116" width="104" height="268" fill="#f8f5ff" stroke="none" rx="10" opacity="0.58"/>
<rect x="452" y="116" width="104" height="268" fill="#f8f5ff" stroke="none" rx="10" opacity="0.58"/>
<rect x="614" y="116" width="104" height="268" fill="#f8f5ff" stroke="none" rx="10" opacity="0.58"/>
<rect x="776" y="116" width="104" height="268" fill="#f8f5ff" stroke="none" rx="10" opacity="0.58"/>
<rect x="938" y="116" width="104" height="268" fill="#f8f5ff" stroke="none" rx="10" opacity="0.58"/>
<text x="44" y="186" fill="#102a43" font-size="13.0" font-family="'IBM Plex Sans', 'Helvetica Neue', sans-serif" font-weight="600" text-anchor="start">QPU 0</text>
<text x="44" y="322" fill="#102a43" font-size="13.0" font-family="'IBM Plex Sans', 'Helvetica Neue', sans-serif" font-weight="600" text-anchor="start">QPU 1</text>
<text x="110" y="141" fill="#52606d" font-size="11.0" font-family="'IBM Plex Sans', 'Helvetica Neue', sans-serif" font-weight="400" text-anchor="end">0</text>
<text x="110" y="171" fill="#52606d" font-size="11.0" font-family="'IBM Plex Sans', 'Helvetica Neue', sans-serif" font-weight="400" text-anchor="end">1</text>
<text x="110" y="201" fill="#52606d" font-size="11.0" font-family="'IBM Plex Sans', 'Helvetica Neue', sans-serif" font-weight="400" text-anchor="end">2</text>
<text x="110" y="231" fill="#52606d" font-size="11.0" font-family="'IBM Plex Sans', 'Helvetica Neue', sans-serif" font-weight="400" text-anchor="end">3</text>
<text x="110" y="277" fill="#52606d" font-size="11.0" font-family="'IBM Plex Sans', 'Helvetica Neue', sans-serif" font-weight="400" text-anchor="end">0</text>
<text x="110" y="307" fill="#52606d" font-size="11.0" font-family="'IBM Plex Sans', 'Helvetica Neue', sans-serif" font-weight="400" text-anchor="end">1</text>
<text x="110" y="337" fill="#52606d" font-size="11.0" font-family="'IBM Plex Sans', 'Helvetica Neue', sans-serif" font-weight="400" text-anchor="end">2</text>
<text x="110" y="367" fill="#52606d" font-size="11.0" font-family="'IBM Plex Sans', 'Helvetica Neue', sans-serif" font-weight="400" text-anchor="end">3</text>
<line x1="56" y1="249" x2="1056" y2="249" stroke="#4801b0" stroke-width="1" opacity="0.42" dasharray="2.5 7.5" linecap="round"/>
<line x1="138" y1="136" x2="1056" y2="136" stroke="#d3dae6" stroke-width="0.9" opacity="1" linecap="round"/>
<line x1="138" y1="166" x2="1056" y2="166" stroke="#d3dae6" stroke-width="0.9" opacity="1" linecap="round"/>
<line x1="138" y1="196" x2="1056" y2="196" stroke="#d3dae6" stroke-width="0.9" opacity="1" linecap="round"/>
<line x1="138" y1="226" x2="1056" y2="226" stroke="#d3dae6" stroke-width="0.9" opacity="1" linecap="round"/>
<line x1="138" y1="272" x2="1056" y2="272" stroke="#d3dae6" stroke-width="0.9" opacity="1" linecap="round"/>
<line x1="138" y1="302" x2="1056" y2="302" stroke="#d3dae6" stroke-width="0.9" opacity="1" linecap="round"/>
<line x1="138" y1="332" x2="1056" y2="332" stroke="#d3dae6" stroke-width="0.9" opacity="1" linecap="round"/>
<line x1="138" y1="362" x2="1056" y2="362" stroke="#d3dae6" stroke-width="0.9" opacity="1" linecap="round"/>
<text x="180" y="108" fill="#52606d" font-size="12.0" font-family="'IBM Plex Sans', 'Helvetica Neue', sans-serif" font-weight="600" text-anchor="middle">W0</text>
<text x="342" y="108" fill="#52606d" font-size="12.0" font-family="'IBM Plex Sans', 'Helvetica Neue', sans-serif" font-weight="600" text-anchor="middle">W1</text>
<text x="504" y="108" fill="#52606d" font-size="12.0" font-family="'IBM Plex Sans', 'Helvetica Neue', sans-serif" font-weight="600" text-anchor="middle">W2</text>
<text x="666" y="108" fill="#52606d" font-size="12.0" font-family="'IBM Plex Sans', 'Helvetica Neue', sans-serif" font-weight="600" text-anchor="middle">W3</text>
<text x="828" y="108" fill="#52606d" font-size="12.0" font-family="'IBM Plex Sans', 'Helvetica Neue', sans-serif" font-weight="600" text-anchor="middle">W4</text>
<text x="990" y="108" fill="#52606d" font-size="12.0" font-family="'IBM Plex Sans', 'Helvetica Neue', sans-serif" font-weight="600" text-anchor="middle">W5</text>
<line x1="159" y1="272" x2="159" y2="302" stroke="#6b7a90" stroke-width="1" opacity="1" linecap="round"/>
<circle cx="159" cy="272" r="3.4" fill="#6b7a90" stroke="none"/>
<circle cx="159" cy="302" r="3.4" fill="#6b7a90" stroke="none"/>
<rect x="141" y="276" width="36" height="22" fill="#f8fbff" stroke="#6b7a90" stroke-width="1" rx="5.5" opacity="1"/>
<text x="159" y="291" fill="#102a43" font-size="10.0" font-family="'IBM Plex Sans', 'Helvetica Neue', sans-serif" font-weight="600" text-anchor="middle">CX</text>
<line x1="201" y1="302" x2="201" y2="332" stroke="#6b7a90" stroke-width="1" opacity="1" linecap="round"/>
<circle cx="201" cy="302" r="3.4" fill="#6b7a90" stroke="none"/>
<circle cx="201" cy="332" r="3.4" fill="#6b7a90" stroke="none"/>
<rect x="183" y="306" width="36" height="22" fill="#f8fbff" stroke="#6b7a90" stroke-width="1" rx="5.5" opacity="1"/>
<text x="201" y="321" fill="#102a43" font-size="10.0" font-family="'IBM Plex Sans', 'Helvetica Neue', sans-serif" font-weight="600" text-anchor="middle">CX</text>
<line x1="321" y1="136" x2="321" y2="332" stroke="#d702fe" stroke-width="1" opacity="1" dasharray="4 4" linecap="round"/>
<circle cx="321" cy="332" r="3.4" fill="#d702fe" stroke="none"/>
<circle cx="321" cy="136" r="3.4" fill="#d702fe" stroke="none"/>
<rect x="303" y="223" width="36" height="22" fill="#faedff" stroke="#d702fe" stroke-width="1" rx="5.5" opacity="1"/>
<text x="321" y="238" fill="#102a43" font-size="10.0" font-family="'IBM Plex Sans', 'Helvetica Neue', sans-serif" font-weight="600" text-anchor="middle">RCX</text>
<line x1="363" y1="136" x2="363" y2="166" stroke="#6b7a90" stroke-width="1" opacity="1" linecap="round"/>
<circle cx="363" cy="136" r="3.4" fill="#6b7a90" stroke="none"/>
<circle cx="363" cy="166" r="3.4" fill="#6b7a90" stroke="none"/>
<rect x="345" y="140" width="36" height="22" fill="#f8fbff" stroke="#6b7a90" stroke-width="1" rx="5.5" opacity="1"/>
<text x="363" y="155" fill="#102a43" font-size="10.0" font-family="'IBM Plex Sans', 'Helvetica Neue', sans-serif" font-weight="600" text-anchor="middle">CX</text>
<line x1="483" y1="166" x2="483" y2="362" stroke="#d702fe" stroke-width="1" opacity="1" dasharray="4 4" linecap="round"/>
<circle cx="483" cy="166" r="3.4" fill="#d702fe" stroke="none"/>
<circle cx="483" cy="362" r="3.4" fill="#d702fe" stroke="none"/>
<rect x="465" y="253" width="36" height="22" fill="#faedff" stroke="#d702fe" stroke-width="1" rx="5.5" opacity="1"/>
<text x="483" y="268" fill="#102a43" font-size="10.0" font-family="'IBM Plex Sans', 'Helvetica Neue', sans-serif" font-weight="600" text-anchor="middle">RCX</text>
<line x1="525" y1="196" x2="525" y2="362" stroke="#d702fe" stroke-width="1" opacity="1" dasharray="4 4" linecap="round"/>
<circle cx="525" cy="362" r="3.4" fill="#d702fe" stroke="none"/>
<circle cx="525" cy="196" r="3.4" fill="#d702fe" stroke="none"/>
<rect x="507" y="268" width="36" height="22" fill="#faedff" stroke="#d702fe" stroke-width="1" rx="5.5" opacity="1"/>
<text x="525" y="283" fill="#102a43" font-size="10.0" font-family="'IBM Plex Sans', 'Helvetica Neue', sans-serif" font-weight="600" text-anchor="middle">RCX</text>
<line x1="645" y1="196" x2="645" y2="226" stroke="#6b7a90" stroke-width="1" opacity="1" linecap="round"/>
<circle cx="645" cy="196" r="3.4" fill="#6b7a90" stroke="none"/>
<circle cx="645" cy="226" r="3.4" fill="#6b7a90" stroke="none"/>
<rect x="627" y="200" width="36" height="22" fill="#f8fbff" stroke="#6b7a90" stroke-width="1" rx="5.5" opacity="1"/>
<text x="645" y="215" fill="#102a43" font-size="10.0" font-family="'IBM Plex Sans', 'Helvetica Neue', sans-serif" font-weight="600" text-anchor="middle">CX</text>
<line x1="687" y1="272" x2="687" y2="302" stroke="#6b7a90" stroke-width="1" opacity="1" linecap="round"/>
<circle cx="687" cy="302" r="3.4" fill="#6b7a90" stroke="none"/>
<circle cx="687" cy="272" r="3.4" fill="#6b7a90" stroke="none"/>
<rect x="669" y="276" width="36" height="22" fill="#f8fbff" stroke="#6b7a90" stroke-width="1" rx="5.5" opacity="1"/>
<text x="687" y="291" fill="#102a43" font-size="10.0" font-family="'IBM Plex Sans', 'Helvetica Neue', sans-serif" font-weight="600" text-anchor="middle">CX</text>
<line x1="807" y1="136" x2="807" y2="166" stroke="#6b7a90" stroke-width="1" opacity="1" linecap="round"/>
<circle cx="807" cy="166" r="3.4" fill="#6b7a90" stroke="none"/>
<circle cx="807" cy="136" r="3.4" fill="#6b7a90" stroke="none"/>
<rect x="789" y="140" width="36" height="22" fill="#f8fbff" stroke="#6b7a90" stroke-width="1" rx="5.5" opacity="1"/>
<text x="807" y="155" fill="#102a43" font-size="10.0" font-family="'IBM Plex Sans', 'Helvetica Neue', sans-serif" font-weight="600" text-anchor="middle">CX</text>
<line x1="849" y1="272" x2="849" y2="362" stroke="#6b7a90" stroke-width="1" opacity="1" linecap="round"/>
<circle cx="849" cy="362" r="3.4" fill="#6b7a90" stroke="none"/>
<circle cx="849" cy="272" r="3.4" fill="#6b7a90" stroke="none"/>
<rect x="831" y="306" width="36" height="22" fill="#f8fbff" stroke="#6b7a90" stroke-width="1" rx="5.5" opacity="1"/>
<text x="849" y="321" fill="#102a43" font-size="10.0" font-family="'IBM Plex Sans', 'Helvetica Neue', sans-serif" font-weight="600" text-anchor="middle">CX</text>
<line x1="969" y1="332" x2="969" y2="362" stroke="#6b7a90" stroke-width="1" opacity="1" linecap="round"/>
<circle cx="969" cy="362" r="3.4" fill="#6b7a90" stroke="none"/>
<circle cx="969" cy="332" r="3.4" fill="#6b7a90" stroke="none"/>
<rect x="951" y="336" width="36" height="22" fill="#f8fbff" stroke="#6b7a90" stroke-width="1" rx="5.5" opacity="1"/>
<text x="969" y="351" fill="#102a43" font-size="10.0" font-family="'IBM Plex Sans', 'Helvetica Neue', sans-serif" font-weight="600" text-anchor="middle">CX</text>
<line x1="1011" y1="136" x2="1011" y2="226" stroke="#6b7a90" stroke-width="1" opacity="1" linecap="round"/>
<circle cx="1011" cy="226" r="3.4" fill="#6b7a90" stroke="none"/>
<circle cx="1011" cy="136" r="3.4" fill="#6b7a90" stroke="none"/>
<rect x="993" y="170" width="36" height="22" fill="#f8fbff" stroke="#6b7a90" stroke-width="1" rx="5.5" opacity="1"/>
<text x="1011" y="185" fill="#102a43" font-size="10.0" font-family="'IBM Plex Sans', 'Helvetica Neue', sans-serif" font-weight="600" text-anchor="middle">CX</text>
<path d="M 899.00 332.00 Q 911.00 279.00 923.00 226.00" fill="none" stroke="#4801b0" stroke-width="1.7" opacity="0.92" linecap="round" linejoin="round"/>
<circle cx="899" cy="332" r="2.8" fill="#4801b0" stroke="none"/>
<circle cx="923" cy="226" r="2.8" fill="#4801b0" stroke="none"/>
<path d="M 904.00 226.00 Q 916.00 279.00 928.00 332.00" fill="none" stroke="#4801b0" stroke-width="1.7" opacity="0.92" linecap="round" linejoin="round"/>
<circle cx="904" cy="226" r="2.8" fill="#4801b0" stroke="none"/>
<circle cx="928" cy="332" r="2.8" fill="#4801b0" stroke="none"/>
</svg>